<?xml version="1.0" encoding="UTF-8"?><svg id="Triquetra_Trinity_knot" xmlns="http://www.w3.org/2000/svg" viewBox="0 0 342 94"><path d="m131.72,78.37c1.77,0,2.66.48,2.66,1.43,0,.89-.73,1.33-2.19,1.33-.38,0-1.11-.03-2.19-.09-1.08-.06-2.27-.13-3.57-.19-1.3-.06-2.6-.13-3.9-.19-1.3-.06-2.33-.09-3.09-.09-4.12,0-7.53.13-10.22.38s-4.9.52-6.61.81-3.04.54-3.99.76c-.95.22-1.74.33-2.38.33-.19,0-.44-.08-.76-.24-.32-.16-.48-.33-.48-.52,0-.45.05-.98.14-1.62s.4-.95.9-.95c.63,0,1.57-.05,2.8-.14,1.24-.09,2.5-.24,3.8-.43,1.3-.19,2.49-.44,3.56-.76,1.08-.32,1.81-.7,2.19-1.14.19-.57.4-1.84.62-3.8.22-1.96.43-4.47.62-7.51.19-3.04.35-6.54.48-10.5.13-3.96.19-8.22.19-12.79v-11.36c0-3.14-.05-5.75-.14-7.84-.1-2.09-.24-3.71-.43-4.85-.19-1.14-.45-1.96-.76-2.47-2.85-.19-5.06-.47-6.61-.86-1.55-.38-2.33-.76-2.33-1.14-.19-.19-.28-.44-.28-.76,0-.7.76-1.05,2.28-1.05.76,0,2.54.13,5.32.38,2.79.25,6.05.38,9.79.38,2.79,0,5.05-.05,6.8-.14,1.74-.09,3.17-.21,4.28-.33,1.11-.13,2-.25,2.66-.38.67-.13,1.28-.19,1.85-.19.89,0,1.33.38,1.33,1.14,0,.51-.27.9-.81,1.19-.54.28-1.2.49-2,.62-.79.13-1.65.22-2.57.28-.92.06-1.76.13-2.52.19-.51.06-1.01.14-1.52.24s-.92.21-1.24.33c-.32.13-.6,1.27-.86,3.42-.25,2.16-.48,4.82-.67,7.99-.19,3.17-.33,6.56-.43,10.17-.09,3.61-.14,6.94-.14,9.98,2.98-1.65,5.86-3.58,8.65-5.8,2.79-2.22,5.61-4.94,8.46-8.18,1.08-1.2,2.2-2.46,3.37-3.76,1.17-1.3,2.26-2.66,3.28-4.09,1.01-1.43,1.84-2.9,2.47-4.42.63-1.52.95-3.04.95-4.56,0-.44-.13-.86-.38-1.24-.76,0-1.55.05-2.38.14-.82.09-1.6.22-2.33.38-.73.16-1.36.28-1.9.38-.54.09-.9.14-1.09.14-.95,0-1.43-.48-1.43-1.43,0-.7.17-1.35.52-1.95.35-.6.87-.9,1.57-.9.7-.13,1.9-.1,3.61.09,1.71.19,3.96.28,6.75.28h8.08c.63,0,1.25-.02,1.85-.05.6-.03,1.16-.08,1.66-.14.57-.06,1.11-.09,1.62-.09,1.08,0,1.62.32,1.62.95,0,.19-.03.32-.09.38-.82.95-2.04,2.22-3.66,3.8-1.62,1.59-3.44,3.28-5.47,5.09-2.03,1.81-4.18,3.71-6.47,5.7-2.28,2-4.48,3.9-6.61,5.7-2.13,1.81-4.1,3.47-5.94,4.99-1.84,1.52-3.33,2.76-4.47,3.71,1.58-.32,2.82-.48,3.71-.48,3.23,0,6.09.62,8.56,1.85,2.47,1.24,4.56,2.84,6.27,4.8,1.71,1.96,2.99,4.18,3.85,6.65s1.28,4.94,1.28,7.42c0,.57-.05,1.17-.14,1.81-.09.63-.3,1.2-.62,1.71.95,2.03,1.98,4.31,3.09,6.84,1.11,2.54,2.38,4.93,3.8,7.18,1.43,2.25,3.07,4.2,4.94,5.85,1.87,1.65,4.04,2.6,6.51,2.85.7,0,1.52-.18,2.47-.52.95-.35,1.84-.71,2.66-1.09.19,0,.4.21.62.62.22.41.33.78.33,1.09,0,.95-.41,1.74-1.24,2.38-.82.63-1.71.95-2.66.95-1.71,0-3.71-.43-5.99-1.28-2.28-.86-4.56-2.06-6.85-3.61-2.28-1.55-4.47-3.39-6.56-5.51-2.09-2.12-3.84-4.48-5.23-7.08-.25-.44-.7-1.36-1.33-2.76-.63-1.39-1.47-3.03-2.52-4.9-1.05-1.87-2.23-3.88-3.56-6.04-1.33-2.15-2.84-4.17-4.52-6.04-1.68-1.87-3.47-3.52-5.37-4.94-1.9-1.42-3.93-2.36-6.08-2.8-1.27.06-2.55.54-3.85,1.42-1.3.89-2.58,2.06-3.85,3.52v4.18c0,2.22.03,4.44.09,6.65.06,2.22.14,4.26.24,6.13.09,1.87.24,3.49.43,4.85.19,1.36.44,2.23.76,2.61.57.63,1.6,1.05,3.09,1.24s2.96.28,4.42.28h1.33Z"/><path d="m218.7,84.74c-.13-.89-.37-1.82-.71-2.8-.35-.98-1.09-1.47-2.24-1.47-.95,0-2.23.05-3.85.14-1.62.09-3.34.22-5.18.38-1.84.16-3.68.28-5.51.38-1.84.1-3.46.14-4.85.14-5.51,0-10.39-.79-14.64-2.38-4.25-1.58-7.83-3.77-10.74-6.56-2.92-2.79-5.13-6.13-6.65-10.03-1.52-3.9-2.28-8.19-2.28-12.88,0-6.53,1.05-12.15,3.14-16.87,2.09-4.72,4.91-8.6,8.46-11.65,3.55-3.04,7.64-5.27,12.26-6.7,4.62-1.43,9.47-2.14,14.54-2.14,1.52,0,3.17.05,4.94.14,1.77.1,3.45.22,5.04.38,1.58.16,2.98.32,4.18.48s2.06.3,2.57.43c.32.06.63-.48.95-1.62.32-1.14.71-2.39,1.19-3.76.48-1.36,1.03-2.63,1.66-3.8.63-1.17,1.39-1.76,2.28-1.76,1.08.32,1.84.66,2.28,1.05.44.38.22.89-.67,1.52-1.46,1.14-2.68,2.68-3.66,4.61-.98,1.93-1.85,4.26-2.61,6.99-.32.82-.65,2-1,3.52-.35,1.52-.65,3.23-.9,5.13-.13.51-.52.75-1.19.71-.67-.03-1.13-.49-1.38-1.38-.32-.89-.92-1.89-1.81-2.99-.89-1.11-2.06-2.17-3.52-3.18-1.46-1.01-3.2-1.85-5.23-2.52-2.03-.67-4.31-1-6.84-1-2.85,0-5.45.75-7.8,2.23-2.34,1.49-4.37,3.46-6.08,5.89-1.71,2.44-3.07,5.23-4.09,8.37-1.01,3.14-1.61,6.39-1.81,9.75.51.13,1.57.25,3.19.38,1.61.13,3.37.22,5.27.28,1.9.06,3.74.11,5.51.14,1.77.03,3.1.02,3.99-.05,2.03,0,4.02-.09,5.99-.28,1.96-.19,3.77-.46,5.42-.81,1.65-.35,3.07-.75,4.28-1.19s2.06-.92,2.57-1.43c.25-.38.62-.54,1.09-.48.48.06.81.22,1,.48-.13.57-.35,1.32-.67,2.23-.32.92-.67,1.98-1.05,3.18-.38,1.21-.7,2.54-.95,3.99-.26,1.46-.38,2.98-.38,4.56-.13.63-.49.82-1.09.57-.6-.25-.97-.6-1.09-1.05-.26-1.01-.87-1.81-1.85-2.38-.98-.57-2.25-1-3.8-1.28-1.55-.28-3.31-.46-5.27-.52-1.97-.06-4.09-.09-6.37-.09-4.31,0-7.78.03-10.41.09-2.63.06-4.48.13-5.56.19,0,1.9.14,3.96.43,6.18s.78,4.44,1.47,6.65,1.62,4.36,2.76,6.42c1.14,2.06,2.57,3.9,4.28,5.51,1.71,1.62,3.76,2.9,6.13,3.85,2.38.95,5.12,1.43,8.22,1.43s5.61-.36,7.89-1.09c2.28-.73,4.21-1.62,5.8-2.66,1.58-1.05,2.87-2.14,3.85-3.28.98-1.14,1.66-2.15,2.04-3.04.19-.19.32-.28.38-.28.25,0,.56.09.9.28s.52.45.52.76c-.19.7-.38,1.46-.57,2.28-.32,1.59-.47,3.39-.47,5.42,0,1.65.06,3.27.19,4.85.13,1.58.35,2.91.67,3.99-.63.25-1.19.36-1.66.33-.47-.03-.78-.33-.9-.9Z"/><path d="m249.12,59.74c0,3.23.06,6.39.19,9.46.13,3.08.48,5.56,1.05,7.46,1.14.7,2.43,1.13,3.85,1.28,1.43.16,2.77.27,4.04.33,1.27.06,2.33.19,3.18.38s1.28.6,1.28,1.24c0,.32-.16.59-.48.81-.32.22-.82.33-1.52.33-1.84.06-4.34-.02-7.51-.24-3.17-.22-6.78-.33-10.84-.33-5.2,0-9.11.17-11.74.52-2.63.35-4.2.52-4.71.52-.44,0-.82-.11-1.14-.33-.32-.22-.48-.52-.48-.9,0-.82.38-1.27,1.14-1.33.76-.06,2.19-.25,4.28-.57,1.39-.13,2.53-.3,3.42-.52.89-.22,1.77-.49,2.66-.81.38-1.39.7-2.82.95-4.28.25-1.46.48-3.28.67-5.47.19-2.19.33-4.91.43-8.18.09-3.26.14-7.46.14-12.6,0-4.69-.03-8.67-.09-11.93-.06-3.26-.17-5.99-.33-8.18-.16-2.19-.32-3.91-.47-5.18-.16-1.27-.33-2.25-.52-2.95-.82-.57-1.9-.93-3.23-1.09-1.33-.16-2.63-.28-3.9-.38s-2.36-.24-3.28-.43c-.92-.19-1.38-.63-1.38-1.33,0-.82.51-1.24,1.52-1.24,1.14,0,3.09.14,5.85.43,2.76.28,6.13.43,10.13.43.63,0,1.14-.09,1.52-.29.63-.32,1.65-.76,3.04-1.33,1.39-.57,3.01-1.14,4.85-1.71,1.84-.57,3.79-1.08,5.85-1.52s4.07-.67,6.04-.67c3.17,0,6.18.37,9.03,1.09,2.85.73,5.34,1.82,7.46,3.28,2.12,1.46,3.82,3.27,5.09,5.42,1.27,2.15,1.9,4.66,1.9,7.51s-.65,5.37-1.95,7.75c-1.3,2.38-2.93,4.55-4.9,6.51-1.97,1.96-4.12,3.66-6.47,5.09-2.35,1.43-4.53,2.55-6.56,3.38,2.6,0,5.05.27,7.37.81,2.31.54,4.41,1.3,6.28,2.28,1.87.98,3.42,2.17,4.66,3.57,1.24,1.39,2.04,2.98,2.43,4.75,0,.89-.08,1.47-.24,1.76-.16.28-.46.75-.9,1.38,1.27,2.03,2.68,4.42,4.23,7.18,1.55,2.76,3.29,5.39,5.23,7.89,1.93,2.5,4.09,4.63,6.47,6.37,2.38,1.74,5.02,2.61,7.94,2.61.57,0,1.22-.03,1.95-.1.73-.06,1.42-.19,2.09-.38s1.28-.48,1.85-.86.98-.89,1.24-1.52c.25-.19.51-.28.76-.28.32,0,.52.16.62.47.1.32.17.63.24.95-1.27,2.85-4.41,4.28-9.41,4.28-2.54,0-4.96-.41-7.27-1.24-2.31-.82-4.53-1.92-6.65-3.28-2.12-1.36-4.15-2.93-6.08-4.71-1.93-1.77-3.76-3.61-5.47-5.51-1.27-1.39-2.74-3.14-4.42-5.23-1.68-2.09-3.47-4.23-5.37-6.42-1.9-2.19-3.88-4.25-5.94-6.18-2.06-1.93-4.11-3.44-6.13-4.51-.95-.44-2.03-.78-3.23-1-1.2-.22-2.36-.38-3.47-.48s-2.14-.14-3.09-.14h-2.19c-.38,0-.7.02-.95.05-.25.03-.44.05-.57.05v7.98Zm1.62-40.02c-.32,1.2-.57,2.88-.76,5.04-.19,2.15-.35,4.51-.48,7.08-.13,2.57-.22,5.23-.28,7.98-.06,2.76-.09,5.37-.09,7.84.63.51,1.85.79,3.66.86,1.81.06,3.76.09,5.85.09,1.84,0,3.38-.16,4.61-.48,1.24-.32,2.39-.89,3.47-1.71.63-.44,1.35-1.17,2.14-2.19.79-1.01,1.55-2.22,2.28-3.61.73-1.39,1.35-2.96,1.85-4.71.51-1.74.76-3.59.76-5.56,0-2.85-.32-5.4-.95-7.65-.63-2.25-1.49-4.18-2.57-5.8-1.08-1.62-2.35-2.85-3.8-3.71s-3.01-1.28-4.66-1.28c-.89,0-1.89.18-2.99.52-1.11.35-2.2.81-3.28,1.38-1.08.57-2.03,1.22-2.85,1.95-.82.73-1.36,1.51-1.62,2.33l-.28,1.62Z"/><path d="m318.62,80.56c-1.14,0-2.41.02-3.8.05-1.39.03-2.76.06-4.09.09-1.33.03-2.58.09-3.76.19s-2.08.17-2.71.24l-1.52.19c-.32,0-.59-.18-.81-.52-.22-.35-.33-.68-.33-1,0-.25.13-.52.38-.81.25-.29.6-.43,1.05-.43,2.66,0,4.78-.16,6.37-.48,1.58-.32,2.53-.73,2.85-1.24.38-.76.78-2.46,1.19-5.09.41-2.63.78-5.7,1.09-9.22.32-3.52.57-7.21.76-11.08.19-3.86.28-7.45.28-10.74,0-3.61-.02-6.64-.05-9.08-.03-2.44-.06-4.45-.09-6.04-.03-1.58-.06-2.8-.09-3.66-.03-.86-.05-1.47-.05-1.85-.06-2.03-.35-3.37-.86-4.04-.51-.67-1.43-1.06-2.76-1.19-.95-.13-2.06-.16-3.33-.09-1.27.06-2.19.06-2.76,0-.44-.06-.82-.14-1.14-.24-.32-.09-.48-.43-.48-1,0-.63.16-1.06.48-1.28.32-.22.67-.33,1.05-.33.51,0,2.14.11,4.9.33,2.76.22,6.7.33,11.84.33,3.36,0,6.23-.08,8.6-.24,2.38-.16,4.01-.3,4.9-.43.44,0,.87.05,1.28.14s.62.4.62.9c0,1.08-.73,1.68-2.19,1.81-.51,0-1.08.03-1.71.09-.63.06-1.25.13-1.85.19-.6.06-1.16.16-1.66.28-.51.13-.89.22-1.14.29-.32.13-.62,1.28-.9,3.47-.29,2.19-.54,4.9-.76,8.13-.22,3.23-.43,6.72-.62,10.46-.19,3.74-.32,7.19-.38,10.36-.06,2.41-.11,5.21-.14,8.41-.03,3.2,0,6.27.09,9.22.1,2.95.24,5.5.43,7.65.19,2.16.48,3.39.86,3.71.25.19.73.37,1.43.52.7.16,1.52.32,2.47.48s1.92.27,2.9.33c.98.06,1.89.1,2.71.1.7,0,1.14.06,1.33.19.19.13.29.44.29.95,0,.57-.24.98-.71,1.24-.47.25-.97.38-1.47.38-.38,0-.95-.03-1.71-.09-.76-.06-1.81-.14-3.14-.24-1.33-.09-3.01-.18-5.04-.24-2.03-.06-4.53-.09-7.51-.09h-.57Z"/><path d="m30.29,23.81c-.25.8-.45,1.6-.65,2.43-.4,1.61-.7,3.24-.91,4.88-.11.82-.2,1.64-.26,2.47-3.32,2.66-6.02,6.02-7.91,9.83-.53,1.07-1.01,2.16-1.42,3.28-.37,1.02-.67,2.05-.91,3.11-.44,1.91-.68,3.86-.73,5.83v.65c0,.7,0,1.4.07,2.08.07.91.16,1.75.31,2.6.68,4.1,2.23,8.02,4.54,11.47.39.57.8,1.14,1.23,1.67-.69.1-1.4.17-2.1.23-.98.07-1.97.13-2.96.13h-1.35c-.74,0-1.47-.05-2.2-.14-.36-.64-.71-1.28-1.04-1.95s-.65-1.35-.91-2.04c-.36-.85-.68-1.72-.98-2.6s-.55-1.82-.77-2.73c-.47-1.91-.77-3.86-.91-5.83-.06-.91-.12-1.9-.12-2.86v-.24c0-1.08.05-2.16.16-3.24,1.19-12.44,8.66-23.4,19.8-29.04Z"/><path d="m82.95,56.03c-.62-.91-1.26-1.73-1.94-2.54-1.36-1.66-2.84-3.22-4.43-4.66-.82-.75-1.66-1.45-2.54-2.14-1.79-5.15-5.01-9.69-9.27-13.1-.63-.51-1.29-.99-1.95-1.45-.66-.45-1.31-.85-1.99-1.23-1.3-.73-2.65-1.36-4.04-1.88-.65-.25-1.33-.47-2.01-.67-.68-.2-1.33-.36-2.01-.52-4.07-.88-8.28-.88-12.34,0,.19-.66.38-1.32.61-1.97.45-1.33.97-2.63,1.58-3.9.3-.66.64-1.3.98-1.93,1-.08,1.98-.14,3-.14s2,.05,3,.14c.73.05,1.45.14,2.18.24s1.47.24,2.21.38c1.52.32,3.02.74,4.48,1.25.75.25,1.5.53,2.24.84s1.53.68,2.26,1.05c11.13,5.63,18.61,16.57,19.82,28.98.1,1.06.15,2.15.16,3.24Z"/><path d="m80.14,70.28c-.3.69-.61,1.37-.91,2.04-.3.66-.68,1.32-1.05,1.95-.36.64-.77,1.29-1.17,1.91-.84,1.3-1.78,2.54-2.79,3.71-.52.61-1.06,1.2-1.63,1.77-.56.57-1.15,1.15-1.82,1.7-13.77,12.35-34.64,12.35-48.41,0,.84-.06,1.66-.15,2.49-.26,1.64-.22,3.27-.52,4.88-.91.81-.2,1.61-.42,2.4-.65,8.94,5.13,19.93,5.13,28.87,0,.72-.42,1.41-.85,2.07-1.31s1.27-.91,1.88-1.41c1.15-.94,2.22-1.96,3.21-3.06.48-.53.91-1.07,1.36-1.64s.84-1.1,1.22-1.67c2.32-3.45,3.87-7.36,4.54-11.47.51.7.99,1.42,1.45,2.14.93,1.49,1.74,3.04,2.43,4.65.35.81.67,1.66.97,2.52Z"/><path d="m89.3,81.13c-1.19.4-2.4.75-3.64,1.06-.61.15-1.21.29-1.82.41-.61.12-1.23.24-1.82.33-2.44.4-4.91.6-7.39.6h-1.31c.6-.57,1.17-1.17,1.71-1.82.54-.65,1.06-1.22,1.56-1.82.99-1.24,1.9-2.54,2.73-3.89.76-.08,1.51-.2,2.24-.32.59-.11,1.19-.23,1.82-.37-.11-.59-.23-1.19-.35-1.82-.13-.63-.28-1.18-.45-1.76-.16-.58-.27-.91-.42-1.41-.3-.91-.62-1.77-.98-2.64s-.72-1.7-1.14-2.53c-.8-1.62-1.71-3.18-2.73-4.66-.51-.74-1.05-1.45-1.61-2.15-.55-.7-1.14-1.35-1.74-2-3.01-3.2-6.55-5.85-10.47-7.83.15-.6.29-1.22.41-1.82.27-1.23.45-2.46.63-3.74,2.82,1.32,5.48,2.93,7.95,4.82.84.64,1.65,1.31,2.44,2.01.8.7,1.52,1.41,2.24,2.15,1.42,1.45,2.74,3.01,3.94,4.65.59.82,1.16,1.67,1.71,2.53.55.85,1.08,1.75,1.54,2.66,1.4,2.65,2.52,5.44,3.34,8.33.16.58.31,1.17.45,1.77s.26,1.19.39,1.82c.23,1.21.42,2.44.55,3.64.05.62.11,1.25.15,1.87.04.63.05,1.28.06,1.92Z"/><path d="m53.99,37.8c0,.62,0,1.23-.06,1.82-.1,1.22-.24,2.43-.45,3.64-.11.6-.23,1.2-.35,1.82-4.32-.79-8.75-.79-13.07,0-.61.11-1.19.23-1.82.35s-1.17.29-1.75.45c-1.18.33-2.34.72-3.46,1.15-.59.23-1.15.47-1.7.72s-1.13.53-1.69.81c-3.84,1.98-7.31,4.61-10.25,7.78v-.08c0-.91.05-1.82.13-2.64.19-1.99.61-3.95,1.24-5.84.34-1.07.76-2.12,1.25-3.13,2.06-1.39,4.24-2.61,6.5-3.64.59-.25,1.18-.51,1.76-.74l1.82-.67c1.17-.41,2.36-.78,3.64-1.09.58-.15,1.2-.28,1.82-.42.62-.14,1.21-.24,1.82-.34,4.9-.84,9.91-.84,14.81,0l-.15.04Z"/><path d="m67.5,73.75c-.45.54-.91,1.05-1.42,1.56-1.03,1.05-2.14,2.02-3.32,2.9-.63.45-1.28.91-1.94,1.3-4.57-1.49-8.87-3.72-12.72-6.61-.5-.37-.98-.75-1.47-1.15-.49-.39-.91-.79-1.41-1.2-.91-.82-1.82-1.66-2.64-2.54-.43-.43-.84-.91-1.25-1.34-.41-.43-.79-.91-1.18-1.38-3.81-4.65-6.64-10.02-8.32-15.8.55-.25,1.12-.49,1.68-.72,1.12-.45,2.27-.84,3.44-1.17.59-.17,1.18-.32,1.76-.45,1.34,4.78,3.61,9.24,6.7,13.12.39.49.78.91,1.18,1.42.4.51.81.91,1.25,1.35.84.91,1.72,1.7,2.64,2.5l1.41,1.15c.49.37.97.74,1.48,1.08,4.24,2.95,9.06,4.99,14.13,5.97Z"/><path d="m45.12,72.91c-3.85,2.88-8.15,5.11-12.72,6.61-.76.25-1.51.47-2.29.68-.78.21-1.52.4-2.3.55-1.57.33-3.15.58-4.74.74-.8.08-1.61.14-2.42.17s-1.36.05-2.05.05h-.42c-2.35-.03-4.69-.23-7-.62-.6-.09-1.2-.21-1.82-.34-.62-.13-1.2-.26-1.82-.42-1.22-.3-2.42-.68-3.64-1.09-.59-.21-1.19-.44-1.77-.66.05-.64.11-1.26.17-1.89.15-1.25.34-2.49.57-3.7.12-.62.26-1.22.4-1.82s.32-1.19.49-1.82c1.09-3.76,2.67-7.36,4.7-10.71.08,1.05.17,2.1.34,3.14.29,1.97.73,3.92,1.33,5.82-.45,1.19-.85,2.42-1.2,3.64-.17.59-.31,1.17-.45,1.76-.15.59-.25,1.19-.35,1.82.58.16,1.16.31,1.82.45.65.14,1.18.26,1.82.37.74.12,1.48.24,2.24.32s1.51.16,2.28.21,1.49.07,2.26.08h.11c1.43,0,2.86-.08,4.28-.24.73-.08,1.43-.18,2.15-.3s1.42-.25,2.11-.41c5.02-1.12,9.77-3.23,13.96-6.21.85.91,1.73,1.75,2.64,2.58.37.42.85.84,1.33,1.23Z"/><path d="m63.11,37.18v1.22c0,.65-.05,1.28-.1,1.93s-.08,1.25-.15,1.88c-.15,1.25-.33,2.49-.58,3.71-.13.61-.25,1.21-.41,1.82-.15.61-.3,1.19-.46,1.82-1.67,5.77-4.49,11.14-8.29,15.8-.48-.37-.95-.75-1.42-1.15-.93-.79-1.81-1.63-2.64-2.51-.42-.44-.84-.91-1.24-1.36,3.08-3.9,5.34-8.38,6.65-13.17.15-.58.32-1.17.44-1.76s.26-1.18.37-1.82c.19-1.19.35-2.4.45-3.64,0-.61.08-1.23.08-1.82v-1.87c-.05-1.98-.25-3.95-.6-5.89.66.23,1.33.46,1.96.75,1.36.57,2.67,1.25,3.92,2.05.66.43,1.3.86,1.93,1.34.06.91.1,1.8.1,2.69Z"/><path d="m59.83,20.46c-.75-.28-1.54-.54-2.3-.76-1.49-.45-3.01-.8-4.54-1.06-.75-.13-1.51-.24-2.27-.33-.88-1.47-1.85-2.89-2.92-4.24-.38-.48-.77-.95-1.18-1.42-.4.46-.79.91-1.18,1.42-1.07,1.34-2.05,2.75-2.91,4.24-.39.65-.74,1.31-1.08,1.97-.35.66-.66,1.33-.91,2-.58,1.31-1.08,2.66-1.49,4.04-.22.67-.39,1.35-.55,2.05-.16.69-.31,1.35-.45,2.04-.36,1.94-.56,3.91-.6,5.89-.62.12-1.23.26-1.82.41-1.24.31-2.44.67-3.64,1.07-.6.19-1.22.4-1.82.63v-1.22c0-.91,0-1.82.09-2.65.09-.84.02-1.59.11-2.36.09-.77.2-1.59.33-2.37.26-1.58.62-3.15,1.06-4.69.22-.78.46-1.56.73-2.33.26-.76.54-1.54.85-2.29,1.68-4.12,3.96-7.96,6.76-11.41.39-.47.78-.91,1.18-1.38s.82-.91,1.25-1.33c.84-.91,1.73-1.74,2.64-2.55.45-.4.91-.81,1.41-1.19.47.38.91.79,1.42,1.19.91.82,1.82,1.66,2.64,2.55.43.43.84.91,1.24,1.33s.8.91,1.19,1.38c2.8,3.44,5.08,7.28,6.76,11.39Z"/></svg>