<?xml version="1.0" encoding="UTF-8"?><svg id="Triquetra_Trinity_knot" xmlns="http://www.w3.org/2000/svg" viewBox="0 0 250 94"><path d="m39.83,77.98c1.77,0,2.66.48,2.66,1.43,0,.89-.73,1.33-2.19,1.33-.38,0-1.11-.03-2.19-.09-1.08-.06-2.27-.13-3.57-.19-1.3-.06-2.6-.13-3.9-.19-1.3-.06-2.33-.09-3.09-.09-4.12,0-7.53.13-10.22.38s-4.9.52-6.61.81-3.04.54-3.99.76c-.95.22-1.74.33-2.38.33-.19,0-.44-.08-.76-.24-.32-.16-.48-.33-.48-.52,0-.45.05-.98.14-1.62s.4-.95.9-.95c.63,0,1.57-.05,2.8-.14,1.24-.09,2.5-.24,3.8-.43,1.3-.19,2.49-.44,3.56-.76,1.08-.32,1.81-.7,2.19-1.14.19-.57.4-1.84.62-3.8.22-1.96.43-4.47.62-7.51.19-3.04.35-6.54.48-10.5.13-3.96.19-8.22.19-12.79v-11.36c0-3.14-.05-5.75-.14-7.84-.1-2.09-.24-3.71-.43-4.85-.19-1.14-.45-1.96-.76-2.47-2.85-.19-5.06-.47-6.61-.86-1.55-.38-2.33-.76-2.33-1.14-.19-.19-.28-.44-.28-.76,0-.7.76-1.05,2.28-1.05.76,0,2.54.13,5.32.38,2.79.25,6.05.38,9.79.38,2.79,0,5.05-.05,6.8-.14,1.74-.09,3.17-.21,4.28-.33,1.11-.13,2-.25,2.66-.38.67-.13,1.28-.19,1.85-.19.89,0,1.33.38,1.33,1.14,0,.51-.27.9-.81,1.19-.54.28-1.2.49-2,.62-.79.13-1.65.22-2.57.28-.92.06-1.76.13-2.52.19-.51.06-1.01.14-1.52.24s-.92.21-1.24.33c-.32.13-.6,1.27-.86,3.42-.25,2.16-.48,4.82-.67,7.99-.19,3.17-.33,6.56-.43,10.17-.09,3.61-.14,6.94-.14,9.98,2.98-1.65,5.86-3.58,8.65-5.8,2.79-2.22,5.61-4.94,8.46-8.18,1.08-1.2,2.2-2.46,3.37-3.76,1.17-1.3,2.26-2.66,3.28-4.09,1.01-1.43,1.84-2.9,2.47-4.42.63-1.52.95-3.04.95-4.56,0-.44-.13-.86-.38-1.24-.76,0-1.55.05-2.38.14-.82.09-1.6.22-2.33.38-.73.16-1.36.28-1.9.38-.54.09-.9.14-1.09.14-.95,0-1.43-.48-1.43-1.43,0-.7.17-1.35.52-1.95.35-.6.87-.9,1.57-.9.7-.13,1.9-.1,3.61.09,1.71.19,3.96.28,6.75.28h8.08c.63,0,1.25-.02,1.85-.05.6-.03,1.16-.08,1.66-.14.57-.06,1.11-.09,1.62-.09,1.08,0,1.62.32,1.62.95,0,.19-.03.32-.09.38-.82.95-2.04,2.22-3.66,3.8-1.62,1.59-3.44,3.28-5.47,5.09-2.03,1.81-4.18,3.71-6.47,5.7-2.28,2-4.48,3.9-6.61,5.7-2.13,1.81-4.1,3.47-5.94,4.99-1.84,1.52-3.33,2.76-4.47,3.71,1.58-.32,2.82-.48,3.71-.48,3.23,0,6.09.62,8.56,1.85,2.47,1.24,4.56,2.84,6.27,4.8,1.71,1.96,2.99,4.18,3.85,6.65s1.28,4.94,1.28,7.42c0,.57-.05,1.17-.14,1.81-.09.63-.3,1.2-.62,1.71.95,2.03,1.98,4.31,3.09,6.84,1.11,2.54,2.38,4.93,3.8,7.18,1.43,2.25,3.07,4.2,4.94,5.85,1.87,1.65,4.04,2.6,6.51,2.85.7,0,1.52-.18,2.47-.52.95-.35,1.84-.71,2.66-1.09.19,0,.4.21.62.62.22.41.33.78.33,1.09,0,.95-.41,1.74-1.24,2.38-.82.63-1.71.95-2.66.95-1.71,0-3.71-.43-5.99-1.28-2.28-.86-4.56-2.06-6.85-3.61-2.28-1.55-4.47-3.39-6.56-5.51-2.09-2.12-3.84-4.48-5.23-7.08-.25-.44-.7-1.36-1.33-2.76-.63-1.39-1.47-3.03-2.52-4.9-1.05-1.87-2.23-3.88-3.56-6.04-1.33-2.15-2.84-4.17-4.52-6.04-1.68-1.87-3.47-3.52-5.37-4.94-1.9-1.42-3.93-2.36-6.08-2.8-1.27.06-2.55.54-3.85,1.42-1.3.89-2.58,2.06-3.85,3.52v4.18c0,2.22.03,4.44.09,6.65.06,2.22.14,4.26.24,6.13.09,1.87.24,3.49.43,4.85.19,1.36.44,2.23.76,2.61.57.63,1.6,1.05,3.09,1.24s2.96.28,4.42.28h1.33Z"/><path d="m126.82,84.35c-.13-.89-.37-1.82-.71-2.8-.35-.98-1.09-1.47-2.24-1.47-.95,0-2.23.05-3.85.14-1.62.09-3.34.22-5.18.38-1.84.16-3.68.28-5.51.38-1.84.1-3.46.14-4.85.14-5.51,0-10.39-.79-14.64-2.38-4.25-1.58-7.83-3.77-10.74-6.56-2.92-2.79-5.13-6.13-6.65-10.03-1.52-3.9-2.28-8.19-2.28-12.88,0-6.53,1.05-12.15,3.14-16.87,2.09-4.72,4.91-8.6,8.46-11.65,3.55-3.04,7.64-5.27,12.26-6.7,4.62-1.43,9.47-2.14,14.54-2.14,1.52,0,3.17.05,4.94.14,1.77.1,3.45.22,5.04.38,1.58.16,2.98.32,4.18.48s2.06.3,2.57.43c.32.06.63-.48.95-1.62.32-1.14.71-2.39,1.19-3.76.48-1.36,1.03-2.63,1.66-3.8.63-1.17,1.39-1.76,2.28-1.76,1.08.32,1.84.66,2.28,1.05.44.38.22.89-.67,1.52-1.46,1.14-2.68,2.68-3.66,4.61-.98,1.93-1.85,4.26-2.61,6.99-.32.82-.65,2-1,3.52-.35,1.52-.65,3.23-.9,5.13-.13.51-.52.75-1.19.71-.67-.03-1.13-.49-1.38-1.38-.32-.89-.92-1.89-1.81-2.99-.89-1.11-2.06-2.17-3.52-3.18-1.46-1.01-3.2-1.85-5.23-2.52-2.03-.67-4.31-1-6.84-1-2.85,0-5.45.75-7.8,2.23-2.34,1.49-4.37,3.46-6.08,5.89-1.71,2.44-3.07,5.23-4.09,8.37-1.01,3.14-1.61,6.39-1.81,9.75.51.13,1.57.25,3.19.38,1.61.13,3.37.22,5.27.28,1.9.06,3.74.11,5.51.14,1.77.03,3.1.02,3.99-.05,2.03,0,4.02-.09,5.99-.28,1.96-.19,3.77-.46,5.42-.81,1.65-.35,3.07-.75,4.28-1.19s2.06-.92,2.57-1.43c.25-.38.62-.54,1.09-.48.48.06.81.22,1,.48-.13.57-.35,1.32-.67,2.23-.32.92-.67,1.98-1.05,3.18-.38,1.21-.7,2.54-.95,3.99-.26,1.46-.38,2.98-.38,4.56-.13.63-.49.82-1.09.57-.6-.25-.97-.6-1.09-1.05-.26-1.01-.87-1.81-1.85-2.38-.98-.57-2.25-1-3.8-1.28-1.55-.28-3.31-.46-5.27-.52-1.97-.06-4.09-.09-6.37-.09-4.31,0-7.78.03-10.41.09-2.63.06-4.48.13-5.56.19,0,1.9.14,3.96.43,6.18s.78,4.44,1.47,6.65,1.62,4.36,2.76,6.42c1.14,2.06,2.57,3.9,4.28,5.51,1.71,1.62,3.76,2.9,6.13,3.85,2.38.95,5.12,1.43,8.22,1.43s5.61-.36,7.89-1.09c2.28-.73,4.21-1.62,5.8-2.66,1.58-1.05,2.87-2.14,3.85-3.28.98-1.14,1.66-2.15,2.04-3.04.19-.19.32-.28.38-.28.25,0,.56.09.9.28s.52.45.52.76c-.19.7-.38,1.46-.57,2.28-.32,1.59-.47,3.39-.47,5.42,0,1.65.06,3.27.19,4.85.13,1.58.35,2.91.67,3.99-.63.25-1.19.36-1.66.33-.47-.03-.78-.33-.9-.9Z"/><path d="m157.24,59.35c0,3.23.06,6.39.19,9.46.13,3.08.48,5.56,1.05,7.46,1.14.7,2.43,1.13,3.85,1.28,1.43.16,2.77.27,4.04.33,1.27.06,2.33.19,3.18.38s1.28.6,1.28,1.24c0,.32-.16.59-.48.81-.32.22-.82.33-1.52.33-1.84.06-4.34-.02-7.51-.24-3.17-.22-6.78-.33-10.84-.33-5.2,0-9.11.17-11.74.52-2.63.35-4.2.52-4.71.52-.44,0-.82-.11-1.14-.33-.32-.22-.48-.52-.48-.9,0-.82.38-1.27,1.14-1.33.76-.06,2.19-.25,4.28-.57,1.39-.13,2.53-.3,3.42-.52.89-.22,1.77-.49,2.66-.81.38-1.39.7-2.82.95-4.28.25-1.46.48-3.28.67-5.47.19-2.19.33-4.91.43-8.18.09-3.26.14-7.46.14-12.6,0-4.69-.03-8.67-.09-11.93-.06-3.26-.17-5.99-.33-8.18-.16-2.19-.32-3.91-.47-5.18-.16-1.27-.33-2.25-.52-2.95-.82-.57-1.9-.93-3.23-1.09-1.33-.16-2.63-.28-3.9-.38s-2.36-.24-3.28-.43c-.92-.19-1.38-.63-1.38-1.33,0-.82.51-1.24,1.52-1.24,1.14,0,3.09.14,5.85.43,2.76.28,6.13.43,10.13.43.63,0,1.14-.09,1.52-.29.63-.32,1.65-.76,3.04-1.33,1.39-.57,3.01-1.14,4.85-1.71,1.84-.57,3.79-1.08,5.85-1.52s4.07-.67,6.04-.67c3.17,0,6.18.37,9.03,1.09,2.85.73,5.34,1.82,7.46,3.28,2.12,1.46,3.82,3.27,5.09,5.42,1.27,2.15,1.9,4.66,1.9,7.51s-.65,5.37-1.95,7.75c-1.3,2.38-2.93,4.55-4.9,6.51-1.97,1.96-4.12,3.66-6.47,5.09-2.35,1.43-4.53,2.55-6.56,3.38,2.6,0,5.05.27,7.37.81,2.31.54,4.41,1.3,6.28,2.28,1.87.98,3.42,2.17,4.66,3.57,1.24,1.39,2.04,2.98,2.43,4.75,0,.89-.08,1.47-.24,1.76-.16.28-.46.75-.9,1.38,1.27,2.03,2.68,4.42,4.23,7.18,1.55,2.76,3.29,5.39,5.23,7.89,1.93,2.5,4.09,4.63,6.47,6.37,2.38,1.74,5.02,2.61,7.94,2.61.57,0,1.22-.03,1.95-.1.73-.06,1.42-.19,2.09-.38s1.28-.48,1.85-.86.98-.89,1.24-1.52c.25-.19.51-.28.76-.28.32,0,.52.16.62.47.1.32.17.63.24.95-1.27,2.85-4.41,4.28-9.41,4.28-2.54,0-4.96-.41-7.27-1.24-2.31-.82-4.53-1.92-6.65-3.28-2.12-1.36-4.15-2.93-6.08-4.71-1.93-1.77-3.76-3.61-5.47-5.51-1.27-1.39-2.74-3.14-4.42-5.23-1.68-2.09-3.47-4.23-5.37-6.42-1.9-2.19-3.88-4.25-5.94-6.18-2.06-1.93-4.11-3.44-6.13-4.51-.95-.44-2.03-.78-3.23-1-1.2-.22-2.36-.38-3.47-.48s-2.14-.14-3.09-.14h-2.19c-.38,0-.7.02-.95.05-.25.03-.44.05-.57.05v7.98Zm1.62-40.02c-.32,1.2-.57,2.88-.76,5.04-.19,2.15-.35,4.51-.48,7.08-.13,2.57-.22,5.23-.28,7.98-.06,2.76-.09,5.37-.09,7.84.63.51,1.85.79,3.66.86,1.81.06,3.76.09,5.85.09,1.84,0,3.38-.16,4.61-.48,1.24-.32,2.39-.89,3.47-1.71.63-.44,1.35-1.17,2.14-2.19.79-1.01,1.55-2.22,2.28-3.61s1.35-2.96,1.85-4.71c.51-1.74.76-3.59.76-5.56,0-2.85-.32-5.4-.95-7.65-.63-2.25-1.49-4.18-2.57-5.8-1.08-1.62-2.35-2.85-3.8-3.71s-3.01-1.28-4.66-1.28c-.89,0-1.89.18-2.99.52-1.11.35-2.2.81-3.28,1.38-1.08.57-2.03,1.22-2.85,1.95-.82.73-1.36,1.51-1.62,2.33l-.28,1.62Z"/><path d="m226.73,80.17c-1.14,0-2.41.02-3.8.05-1.39.03-2.76.06-4.09.09-1.33.03-2.58.09-3.76.19s-2.08.17-2.71.24l-1.52.19c-.32,0-.59-.18-.81-.52-.22-.35-.33-.68-.33-1,0-.25.13-.52.38-.81.25-.29.6-.43,1.05-.43,2.66,0,4.78-.16,6.37-.48,1.58-.32,2.53-.73,2.85-1.24.38-.76.78-2.46,1.19-5.09.41-2.63.78-5.7,1.09-9.22.32-3.52.57-7.21.76-11.08.19-3.86.28-7.45.28-10.74,0-3.61-.02-6.64-.05-9.08-.03-2.44-.06-4.45-.09-6.04-.03-1.58-.06-2.8-.09-3.66-.03-.86-.05-1.47-.05-1.85-.06-2.03-.35-3.37-.86-4.04-.51-.67-1.43-1.06-2.76-1.19-.95-.13-2.06-.16-3.33-.09-1.27.06-2.19.06-2.76,0-.44-.06-.82-.14-1.14-.24-.32-.09-.48-.43-.48-1,0-.63.16-1.06.48-1.28.32-.22.67-.33,1.05-.33.51,0,2.14.11,4.9.33,2.76.22,6.7.33,11.84.33,3.36,0,6.23-.08,8.6-.24,2.38-.16,4.01-.3,4.9-.43.44,0,.87.05,1.28.14s.62.4.62.9c0,1.08-.73,1.68-2.19,1.81-.51,0-1.08.03-1.71.09-.63.06-1.25.13-1.85.19-.6.06-1.16.16-1.66.28-.51.13-.89.22-1.14.29-.32.13-.62,1.28-.9,3.47-.29,2.19-.54,4.9-.76,8.13-.22,3.23-.43,6.72-.62,10.46-.19,3.74-.32,7.19-.38,10.36-.06,2.41-.11,5.21-.14,8.41-.03,3.2,0,6.27.09,9.22.1,2.95.24,5.5.43,7.65.19,2.16.48,3.39.86,3.71.25.19.73.37,1.43.52.7.16,1.52.32,2.47.48s1.92.27,2.9.33c.98.06,1.89.1,2.71.1.7,0,1.14.06,1.33.19.19.13.29.44.29.95,0,.57-.24.98-.71,1.24-.47.25-.97.38-1.47.38-.38,0-.95-.03-1.71-.09-.76-.06-1.81-.14-3.14-.24-1.33-.09-3.01-.18-5.04-.24-2.03-.06-4.53-.09-7.51-.09h-.57Z"/></svg>