<?xml version="1.0" encoding="UTF-8"?><svg id="Triquetra_Trinity_knot" xmlns="http://www.w3.org/2000/svg" viewBox="0 0 94 94"><defs><style>.cls-1{fill:#986c32;}.cls-2{fill:#61783e;}</style></defs><path class="cls-2" d="m31.29,22.81c-.25.8-.45,1.6-.65,2.43-.4,1.61-.7,3.24-.91,4.88-.11.82-.2,1.64-.26,2.47-3.32,2.66-6.02,6.02-7.91,9.83-.53,1.07-1.01,2.16-1.42,3.28-.37,1.02-.67,2.05-.91,3.11-.44,1.91-.68,3.86-.73,5.83v.65c0,.7,0,1.4.07,2.08.07.91.16,1.75.31,2.6.68,4.1,2.23,8.02,4.54,11.47.39.57.8,1.14,1.23,1.67-.69.1-1.4.17-2.1.23-.98.07-1.97.13-2.96.13h-1.35c-.74,0-1.47-.05-2.2-.14-.36-.64-.71-1.28-1.04-1.95s-.65-1.35-.91-2.04c-.36-.85-.68-1.72-.98-2.6s-.55-1.82-.77-2.73c-.47-1.91-.77-3.86-.91-5.83-.06-.91-.12-1.9-.12-2.86v-.24c0-1.08.05-2.16.16-3.24,1.19-12.44,8.66-23.4,19.8-29.04Z"/><path class="cls-2" d="m83.95,55.03c-.62-.91-1.26-1.73-1.94-2.54-1.36-1.66-2.84-3.22-4.43-4.66-.82-.75-1.66-1.45-2.54-2.14-1.79-5.15-5.01-9.69-9.27-13.1-.63-.51-1.29-.99-1.95-1.45-.66-.45-1.31-.85-1.99-1.23-1.3-.73-2.65-1.36-4.04-1.88-.65-.25-1.33-.47-2.01-.67-.68-.2-1.33-.36-2.01-.52-4.07-.88-8.28-.88-12.34,0,.19-.66.38-1.32.61-1.97.45-1.33.97-2.63,1.58-3.9.3-.66.64-1.3.98-1.93,1-.08,1.98-.14,3-.14s2,.05,3,.14c.73.05,1.45.14,2.18.24s1.47.24,2.21.38c1.52.32,3.02.74,4.48,1.25.75.25,1.5.53,2.24.84s1.53.68,2.26,1.05c11.13,5.63,18.61,16.57,19.82,28.98.1,1.06.15,2.15.16,3.24Z"/><path class="cls-2" d="m81.14,69.28c-.3.69-.61,1.37-.91,2.04-.3.66-.68,1.32-1.05,1.95-.36.64-.77,1.29-1.17,1.91-.84,1.3-1.78,2.54-2.79,3.71-.52.61-1.06,1.2-1.63,1.77-.56.57-1.15,1.15-1.82,1.7-13.77,12.35-34.64,12.35-48.41,0,.84-.06,1.66-.15,2.49-.26,1.64-.22,3.27-.52,4.88-.91.81-.2,1.61-.42,2.4-.65,8.94,5.13,19.93,5.13,28.87,0,.72-.42,1.41-.85,2.07-1.31s1.27-.91,1.88-1.41c1.15-.94,2.22-1.96,3.21-3.06.48-.53.91-1.07,1.36-1.64s.84-1.1,1.22-1.67c2.32-3.45,3.87-7.36,4.54-11.47.51.7.99,1.42,1.45,2.14.93,1.49,1.74,3.04,2.43,4.65.35.81.67,1.66.97,2.52Z"/><path class="cls-1" d="m90.3,80.13c-1.19.4-2.4.75-3.64,1.06-.61.15-1.21.29-1.82.41-.61.12-1.23.24-1.82.33-2.44.4-4.91.6-7.39.6h-1.31c.6-.57,1.17-1.17,1.71-1.82.54-.65,1.06-1.22,1.56-1.82.99-1.24,1.9-2.54,2.73-3.89.76-.08,1.51-.2,2.24-.32.59-.11,1.19-.23,1.82-.37-.11-.59-.23-1.19-.35-1.82-.13-.63-.28-1.18-.45-1.76-.16-.58-.27-.91-.42-1.41-.3-.91-.62-1.77-.98-2.64s-.72-1.7-1.14-2.53c-.8-1.62-1.71-3.18-2.73-4.66-.51-.74-1.05-1.45-1.61-2.15-.55-.7-1.14-1.35-1.74-2-3.01-3.2-6.55-5.85-10.47-7.83.15-.6.29-1.22.41-1.82.27-1.23.45-2.46.63-3.74,2.82,1.32,5.48,2.93,7.95,4.82.84.64,1.65,1.31,2.44,2.01.8.7,1.52,1.41,2.24,2.15,1.42,1.45,2.74,3.01,3.94,4.65.59.82,1.16,1.67,1.71,2.53.55.85,1.08,1.75,1.54,2.66,1.4,2.65,2.52,5.44,3.34,8.33.16.58.31,1.17.45,1.77s.26,1.19.39,1.82c.23,1.21.42,2.44.55,3.64.05.62.11,1.25.15,1.87.04.63.05,1.28.06,1.92Z"/><path class="cls-1" d="m54.99,36.8c0,.62,0,1.23-.06,1.82-.1,1.22-.24,2.43-.45,3.64-.11.6-.23,1.2-.35,1.82-4.32-.79-8.75-.79-13.07,0-.61.11-1.19.23-1.82.35s-1.17.29-1.75.45c-1.18.33-2.34.72-3.46,1.15-.59.23-1.15.47-1.7.72s-1.13.53-1.69.81c-3.84,1.98-7.31,4.61-10.25,7.78v-.08c0-.91.05-1.82.13-2.64.19-1.99.61-3.95,1.24-5.84.34-1.07.76-2.12,1.25-3.13,2.06-1.39,4.24-2.61,6.5-3.64.59-.25,1.18-.51,1.76-.74l1.82-.67c1.17-.41,2.36-.78,3.64-1.09.58-.15,1.2-.28,1.82-.42.62-.14,1.21-.24,1.82-.34,4.9-.84,9.91-.84,14.81,0l-.15.04Z"/><path class="cls-1" d="m68.5,72.75c-.45.54-.91,1.05-1.42,1.56-1.03,1.05-2.14,2.02-3.32,2.9-.63.45-1.28.91-1.94,1.3-4.57-1.49-8.87-3.72-12.72-6.61-.5-.37-.98-.75-1.47-1.15-.49-.39-.91-.79-1.41-1.2-.91-.82-1.82-1.66-2.64-2.54-.43-.43-.84-.91-1.25-1.34-.41-.43-.79-.91-1.18-1.38-3.81-4.65-6.64-10.02-8.32-15.8.55-.25,1.12-.49,1.68-.72,1.12-.45,2.27-.84,3.44-1.17.59-.17,1.18-.32,1.76-.45,1.34,4.78,3.61,9.24,6.7,13.12.39.49.78.91,1.18,1.42.4.51.81.91,1.25,1.35.84.91,1.72,1.7,2.64,2.5l1.41,1.15c.49.37.97.74,1.48,1.08,4.24,2.95,9.06,4.99,14.13,5.97Z"/><path class="cls-1" d="m46.12,71.91c-3.85,2.88-8.15,5.11-12.72,6.61-.76.25-1.51.47-2.29.68-.78.21-1.52.4-2.3.55-1.57.33-3.15.58-4.74.74-.8.08-1.61.14-2.42.17s-1.36.05-2.05.05h-.42c-2.35-.03-4.69-.23-7-.62-.6-.09-1.2-.21-1.82-.34-.62-.13-1.2-.26-1.82-.42-1.22-.3-2.42-.68-3.64-1.09-.59-.21-1.19-.44-1.77-.66.05-.64.11-1.26.17-1.89.15-1.25.34-2.49.57-3.7.12-.62.26-1.22.4-1.82s.32-1.19.49-1.82c1.09-3.76,2.67-7.36,4.7-10.71.08,1.05.17,2.1.34,3.14.29,1.97.73,3.92,1.33,5.82-.45,1.19-.85,2.42-1.2,3.64-.17.59-.31,1.17-.45,1.76-.15.59-.25,1.19-.35,1.82.58.16,1.16.31,1.82.45.65.14,1.18.26,1.82.37.74.12,1.48.24,2.24.32s1.51.16,2.28.21,1.49.07,2.26.08h.11c1.43,0,2.86-.08,4.28-.24.73-.08,1.43-.18,2.15-.3s1.42-.25,2.11-.41c5.02-1.12,9.77-3.23,13.96-6.21.85.91,1.73,1.75,2.64,2.58.37.42.85.84,1.33,1.23Z"/><path class="cls-1" d="m64.11,36.18v1.22c0,.65-.05,1.28-.1,1.93s-.08,1.25-.15,1.88c-.15,1.25-.33,2.49-.58,3.71-.13.61-.25,1.21-.41,1.82-.15.61-.3,1.19-.46,1.82-1.67,5.77-4.49,11.14-8.29,15.8-.48-.37-.95-.75-1.42-1.15-.93-.79-1.81-1.63-2.64-2.51-.42-.44-.84-.91-1.24-1.36,3.08-3.9,5.34-8.38,6.65-13.17.15-.58.32-1.17.44-1.76s.26-1.18.37-1.82c.19-1.19.35-2.4.45-3.64,0-.61.08-1.23.08-1.82v-1.87c-.05-1.98-.25-3.95-.6-5.89.66.23,1.33.46,1.96.75,1.36.57,2.67,1.25,3.92,2.05.66.43,1.3.86,1.93,1.34.06.91.1,1.8.1,2.69Z"/><path class="cls-1" d="m60.83,19.46c-.75-.28-1.54-.54-2.3-.76-1.49-.45-3.01-.8-4.54-1.06-.75-.13-1.51-.24-2.27-.33-.88-1.47-1.85-2.89-2.92-4.24-.38-.48-.77-.95-1.18-1.42-.4.46-.79.91-1.18,1.42-1.07,1.34-2.05,2.75-2.91,4.24-.39.65-.74,1.31-1.08,1.97-.35.66-.66,1.33-.91,2-.58,1.31-1.08,2.66-1.49,4.04-.22.67-.39,1.35-.55,2.05-.16.69-.31,1.35-.45,2.04-.36,1.94-.56,3.91-.6,5.89-.62.12-1.23.26-1.82.41-1.24.31-2.44.67-3.64,1.07-.6.19-1.22.4-1.82.63v-1.22c0-.91,0-1.82.09-2.65.09-.84.02-1.59.11-2.36.09-.77.2-1.59.33-2.37.26-1.58.62-3.15,1.06-4.69.22-.78.46-1.56.73-2.33.26-.76.54-1.54.85-2.29,1.68-4.12,3.96-7.96,6.76-11.41.39-.47.78-.91,1.18-1.38s.82-.91,1.25-1.33c.84-.91,1.73-1.74,2.64-2.55.45-.4.91-.81,1.41-1.19.47.38.91.79,1.42,1.19.91.82,1.82,1.66,2.64,2.55.43.43.84.91,1.24,1.33s.8.91,1.19,1.38c2.8,3.44,5.08,7.28,6.76,11.39Z"/></svg>